<?xml version="1.0" encoding="utf-8"?>
<!-- Generator: Adobe Illustrator 22.1.0, SVG Export Plug-In . SVG Version: 6.00 Build 0)  -->
<svg version="1.1" id="Layer_1" xmlns="http://www.w3.org/2000/svg" xmlns:xlink="http://www.w3.org/1999/xlink" x="0px" y="0px"
	 viewBox="0 0 432 432" style="enable-background:new 0 0 432 432;" xml:space="preserve">
<style type="text/css">
	.st0{fill:#645180;}
</style>
<path class="st0" d="M367.9,109.9c-47,53-87.7,113.6-122.9,183.1h70.8c9.9,0,18,8.1,18,18s-8.1,18-18,18h-88.3
	c-1.7,3.7-3.4,7.3-5,11c-5.2,11.6-13.4,31.1-17.7,41.7c-2.5,6.3-3.9,8.2-7.4,9.8c-1.1,0.5-2.1,0.7-4.1,0.7c-5.3,0-7.4-1.8-12.7-11.1
	c-10.8-19.1-21.1-36.4-31-52.1h-39.8c-9.9,0-18-8.1-18-18s8.1-18,18-18h15.6c-8.7-12-17.1-22.8-25.4-32.4
	C89,247.7,74,232.2,60.3,219.4c-5.6-5.2-6.4-6.1-7.3-7.9c-1-2-1-2.2-1-5.5c0-4,0.6-6.4,2.2-9.7c2.8-5.8,8.5-9.9,15.5-11.4
	c3.5-0.7,10.8-0.9,15-0.3c14.7,2,33.2,8.4,59.7,20.6c6.3,2.9,25.7,12.6,33.7,16.7c2.5,1.3,4.5,2.4,4.6,2.4s2.3-2.6,5-5.9
	c16.4-19.4,39.1-45,59.8-67.4c1.9-2.1,3.8-4.1,5.7-6.2H109.8c-9.9,0-18-8.1-18-18s8.1-18,18-18h177.6c13.4-13.7,26.3-26.3,38.2-37.6
	L224.4,12.8c-19.5-11.3-43.5-11.3-63,0l-129.9,75C12,99,0,119.8,0,142.3v150c0,22.5,12,43.3,31.5,54.6l129.9,75
	c19.5,11.3,43.5,11.3,63,0l129.9-75c19.5-11.3,31.5-32.1,31.5-54.6v-150c0-14-4.6-27.3-12.8-38.1C371.3,106.1,369.6,108,367.9,109.9
	z M70.3,112c8.2,0,14.9,6.7,14.9,14.9c0,8.2-6.7,14.9-14.9,14.9c-8.2,0-14.9-6.7-14.9-14.9C55.5,118.6,62.1,112,70.3,112z
	 M70.3,325.8c-8.2,0-14.9-6.7-14.9-14.9c0-8.2,6.7-14.9,14.9-14.9c8.2,0,14.9,6.7,14.9,14.9C85.2,319.2,78.6,325.8,70.3,325.8z"/>
</svg>
